<svg width="36" height="45" viewBox="0 0 36 45" fill="none" xmlns="http://www.w3.org/2000/svg">
<path d="M21.9458 3.38343C22.3055 1.8729 21.4962 0.629864 21.0466 0.197162C18.9783 -0.746917 17.9367 1.92797 17.6744 3.38343C17.4946 5.64921 18.9484 6.05831 19.6977 5.97964C21.1365 5.60201 21.7959 4.09148 21.9458 3.38343Z" fill="#A88D82"/>
<path fill-rule="evenodd" clip-rule="evenodd" d="M23.3551 5.60786C23.7136 5.63119 24.0794 5.75914 24.3902 6.04829C24.6578 6.29726 24.8578 6.6413 24.9918 7.07564L25.0455 7.26704L25.0553 7.30806L25.0592 7.35103L25.6842 15.7026C26.5377 15.0165 27.7776 13.6705 28.5855 11.5835L28.6334 11.4594L28.7369 11.3754C29.1747 11.0211 29.9028 10.5747 30.6598 10.4399C31.0453 10.3713 31.4714 10.3779 31.8727 10.5532C32.2319 10.7102 32.5313 10.9852 32.7535 11.3764L32.8443 11.5512L32.8678 11.602L32.8795 11.6557C32.9528 11.9859 32.8614 12.3809 32.6754 12.7885C32.4816 13.2131 32.154 13.7209 31.6549 14.3061C30.8635 15.2338 29.6177 16.3836 27.7262 17.7456C28.9729 17.6407 30.3516 17.5687 31.5523 17.5922C32.4887 17.6106 33.3616 17.6879 33.985 17.8715C34.2903 17.9615 34.6003 18.0945 34.818 18.3129C34.933 18.4284 35.0294 18.5752 35.0758 18.7543C35.1169 18.9135 35.1087 19.0724 35.0709 19.2231C35.008 19.8804 34.6013 21.2568 33.36 22.0844L33.3336 22.102L33.3062 22.1157C33.1084 22.2144 32.7476 22.2761 32.3482 22.143L32.3072 22.1293L32.2682 22.1079C31.4607 21.6707 29.1509 20.7484 26.2799 20.4848C26.5574 22.8629 26.7821 26.3486 26.6256 29.7817C26.5403 31.6513 26.3431 33.517 25.9762 35.185C25.6106 36.8466 25.0695 38.3489 24.2769 39.4633C23.3838 40.9115 21.6118 42.8341 19.1393 43.9799C16.6285 45.1433 13.4114 45.4967 9.72226 43.7719L9.71543 43.769L9.70761 43.7651C8.5334 43.1672 7.14472 41.8045 6.70664 39.6528C6.26717 37.4935 6.80168 34.6295 9.29355 31.0561L9.30136 31.0463C11.1003 28.5968 16.1036 22.8021 21.9557 18.8891L21.0357 10.8901C20.7441 12.939 20.1954 15.6693 19.3746 18.021C18.9094 19.3537 18.3475 20.5952 17.6764 21.5239C17.0255 22.4244 16.2066 23.1174 15.2027 23.1987C14.1489 23.4933 12.7394 23.0958 11.5904 21.4379C10.5114 19.8808 9.63071 17.1879 9.36679 12.7622C8.77472 14.1679 8.05621 16.084 7.46054 18.1284C6.70098 20.7354 6.15496 23.4996 6.28769 25.6684C6.33345 26.0349 6.23664 26.5188 5.88046 26.9506C5.50392 27.4067 4.87308 27.7659 3.9166 27.9184L3.91757 27.9194C3.49288 27.9942 2.85717 27.9519 2.30136 27.5717C1.72144 27.1749 1.31032 26.4669 1.25839 25.3774L1.25742 25.3588L1.25839 25.3393L1.59726 13.3188C1.59033 13.3231 1.58232 13.3275 1.5748 13.3325L1.49179 13.3872L1.39511 13.4067C1.27298 13.4311 1.12504 13.4487 0.975191 13.4487C0.83275 13.4486 0.646897 13.4329 0.473238 13.3588C0.285345 13.2785 0.0725019 13.1078 0.0142538 12.8081C-0.0367301 12.5452 0.0567671 12.2948 0.172457 12.0922L0.218355 12.0102L0.291598 11.9516L2.70957 9.99361L2.71738 9.98775C3.1008 9.68953 3.7469 9.32121 4.41953 9.26802C4.76767 9.24064 5.14625 9.29646 5.48984 9.51607C5.83488 9.73678 6.09393 10.0896 6.26035 10.561L6.29257 10.6538L6.28769 10.7504L6.17832 13.142C6.54477 12.3985 6.96221 11.6249 7.41464 10.9028C7.92025 10.0959 8.47891 9.33567 9.06503 8.74751C9.63137 8.17933 10.2742 7.72121 10.9654 7.59322C11.5366 7.41758 12.3331 7.50464 12.9684 8.20747C13.5941 8.89997 14.0045 10.125 14.0045 12.1098V12.1225C13.9861 12.8797 14.0415 14.1415 14.2701 15.434C14.4495 16.4483 14.7291 17.4395 15.1344 18.2182C15.1415 18.2041 15.1505 18.19 15.1578 18.1752C15.3393 17.8074 15.5536 17.2727 15.7818 16.5366C16.2381 15.0647 16.7418 12.8108 17.1539 9.51411C17.164 9.23391 17.2406 8.84815 17.4547 8.49947C17.6928 8.11188 18.0998 7.77478 18.7154 7.70161L18.9674 7.6479C19.2556 7.57663 19.643 7.45277 20.0504 7.269C20.5951 7.02321 21.1433 6.6836 21.5416 6.24556L21.5768 6.20747L21.6187 6.17622C22.0085 5.89479 22.6718 5.56374 23.3551 5.60786ZM22.2027 20.6811C20.7924 21.6605 18.5539 23.4861 16.3873 25.8002C14.2241 28.1108 12.1028 30.9403 10.9644 33.9282L10.9615 33.936L10.9586 33.9448C10.5962 35.0117 10.2586 36.7199 10.4225 38.4067C10.5868 40.0973 11.2681 41.8494 13.0309 42.8344L13.0416 42.8403C13.9172 43.3011 15.3464 43.4732 16.8863 42.6684C18.4189 41.8673 20.0132 40.1252 21.3277 36.851L21.3287 36.852C22.2558 34.8766 23.8221 29.04 22.985 21.0405L22.8971 20.1997L22.2027 20.6811Z" fill="#A88D82"/>
</svg>
