<svg width="28" height="28" viewBox="0 0 28 28" fill="none" xmlns="http://www.w3.org/2000/svg">
<g clip-path="url(#clip0_48_27)">
<path d="M25.6667 12.9262V13.9995C25.6652 16.5153 24.8506 18.9633 23.3442 20.9783C21.8379 22.9933 19.7205 24.4674 17.3079 25.1807C14.8953 25.8941 12.3168 25.8084 9.95688 24.9365C7.59696 24.0647 5.58209 22.4533 4.21278 20.3428C2.84347 18.2322 2.19308 15.7356 2.35862 13.2252C2.52415 10.7148 3.49674 8.32523 5.13132 6.41277C6.76591 4.50031 8.97491 3.16746 11.4289 2.61302C13.8829 2.05858 16.4503 2.31224 18.7483 3.33618M25.6667 4.66618L14 16.3445L10.5 12.8445" stroke="#1E1E1E" stroke-width="3.5" stroke-linecap="round" stroke-linejoin="round"/>
</g>
<defs>
<clipPath id="clip0_48_27">
<rect width="28" height="28" fill="white"/>
</clipPath>
</defs>
</svg>
