<svg width="20" height="32" viewBox="0 0 20 32" fill="none" xmlns="http://www.w3.org/2000/svg">
<circle cx="10" cy="16" r="10" fill="#A54531"/>
<path d="M9.472 18.128L9.152 11.92L9.12 10.032H10.88L10.848 11.92L10.528 18.128H9.472ZM10 22.08C9.712 22.08 9.46667 21.984 9.264 21.792C9.072 21.6 8.976 21.344 8.976 21.024C8.976 20.704 9.07733 20.448 9.28 20.256C9.48267 20.0533 9.72267 19.952 10 19.952C10.2773 19.952 10.5173 20.0533 10.72 20.256C10.9227 20.448 11.024 20.704 11.024 21.024C11.024 21.344 10.9227 21.6 10.72 21.792C10.5173 21.984 10.2773 22.08 10 22.08Z" fill="white"/>
</svg>
