<svg width="26" height="26" viewBox="0 0 26 26" fill="none" xmlns="http://www.w3.org/2000/svg">
<path d="M18.9587 7.04163H18.9695M7.58366 2.16663H18.417C21.4085 2.16663 23.8337 4.59175 23.8337 7.58329V18.4166C23.8337 21.4082 21.4085 23.8333 18.417 23.8333H7.58366C4.59212 23.8333 2.16699 21.4082 2.16699 18.4166V7.58329C2.16699 4.59175 4.59212 2.16663 7.58366 2.16663ZM17.3337 12.3175C17.4674 13.2191 17.3134 14.1399 16.8936 14.9489C16.4738 15.7579 15.8096 16.414 14.9954 16.8238C14.1813 17.2336 13.2586 17.3762 12.3588 17.2314C11.4589 17.0866 10.6276 16.6617 9.98307 16.0172C9.33857 15.3727 8.9137 14.5414 8.7689 13.6415C8.62409 12.7416 8.76673 11.819 9.17651 11.0049C9.58629 10.1907 10.2424 9.52651 11.0514 9.10672C11.8604 8.68693 12.7812 8.53293 13.6828 8.66663C14.6025 8.803 15.4539 9.23154 16.1113 9.88896C16.7687 10.5464 17.1973 11.3978 17.3337 12.3175Z" stroke="#866767" stroke-width="2" stroke-linecap="round" stroke-linejoin="round"/>
</svg>
